<svg width="16" height="17" viewBox="0 0 16 17" fill="none" xmlns="http://www.w3.org/2000/svg">
<path d="M15.5801 8.39062C15.5801 12.6719 12.1114 16.1406 7.83011 16.1406C3.54886 16.1406 0.0801058 12.6719 0.0801058 8.39062C0.0801058 4.10938 3.54886 0.640625 7.83011 0.640625C12.1114 0.640625 15.5801 4.10938 15.5801 8.39062ZM1.58011 8.39062C1.58011 11.8594 4.36136 14.6406 7.83011 14.6406C11.2676 14.6406 14.0801 11.8594 14.0801 8.39062C14.0801 4.95312 11.2676 2.14062 7.83011 2.14062C4.36136 2.14062 1.58011 4.95312 1.58011 8.39062ZM3.83011 9.01562V7.76562C3.83011 7.57812 3.98636 7.39062 4.20511 7.39062H7.83011V5.29688C7.83011 4.98438 8.20511 4.79688 8.45511 5.04688L11.5489 8.14062C11.7051 8.29688 11.7051 8.51562 11.5489 8.67188L8.45511 11.7656C8.20511 12.0156 7.83011 11.8281 7.83011 11.4844V9.39062H4.20511C3.98636 9.39062 3.83011 9.23438 3.83011 9.01562Z" fill="#001038"/>
</svg>
