<svg width="118" height="18" viewBox="0 0 118 18" fill="none" xmlns="http://www.w3.org/2000/svg">
<path d="M12.2603 2.14359C13.2037 2.14631 14.1076 2.50838 14.7747 3.15074C15.4417 3.7931 15.8177 4.66354 15.8206 5.57197V12.428C15.8177 13.3364 15.4417 14.2069 14.7747 14.8492C14.1076 15.4916 13.2037 15.8537 12.2603 15.8564H5.1406C4.19723 15.8537 3.29331 15.4916 2.62624 14.8492C1.95918 14.2069 1.58318 13.3364 1.58036 12.428V5.57197C1.58318 4.66354 1.95918 3.7931 2.62624 3.15074C3.29331 2.50838 4.19723 2.14631 5.1406 2.14359H12.2603ZM12.2603 0.772461H5.1406C2.39928 0.772461 0.156494 2.93219 0.156494 5.57197V12.428C0.156494 15.0678 2.39928 17.2275 5.1406 17.2275H12.2603C15.0016 17.2275 17.2444 15.0678 17.2444 12.428V5.57197C17.2444 2.93219 15.0016 0.772461 12.2603 0.772461Z" fill="#E6ECFD"/>
<path d="M13.3283 5.57202C13.1171 5.57202 12.9106 5.5117 12.735 5.39869C12.5593 5.28569 12.4224 5.12507 12.3416 4.93714C12.2608 4.74922 12.2396 4.54244 12.2808 4.34294C12.322 4.14344 12.4238 3.96019 12.5731 3.81636C12.7225 3.67253 12.9128 3.57458 13.1199 3.5349C13.3271 3.49522 13.5419 3.51558 13.737 3.59342C13.9322 3.67126 14.099 3.80308 14.2163 3.97221C14.3337 4.14133 14.3963 4.34017 14.3963 4.54358C14.3966 4.67872 14.3692 4.81258 14.3156 4.93749C14.2621 5.0624 14.1834 5.17589 14.0842 5.27144C13.9849 5.367 13.8671 5.44274 13.7374 5.49432C13.6077 5.54591 13.4686 5.57231 13.3283 5.57202ZM8.70045 6.2574C9.26375 6.2574 9.81441 6.41825 10.2828 6.71962C10.7511 7.02098 11.1162 7.44932 11.3318 7.95047C11.5473 8.45162 11.6037 9.00307 11.4938 9.53509C11.3839 10.0671 11.1127 10.5558 10.7144 10.9394C10.3161 11.3229 9.80857 11.5841 9.25609 11.69C8.70361 11.7958 8.13095 11.7415 7.61052 11.5339C7.0901 11.3263 6.64528 10.9748 6.33233 10.5238C6.01937 10.0727 5.85234 9.54247 5.85234 9.00003C5.85314 8.27288 6.15347 7.57573 6.68742 7.06156C7.22137 6.54738 7.94533 6.25818 8.70045 6.2574ZM8.70045 4.88627C7.85553 4.88627 7.02959 5.12754 6.32706 5.57956C5.62454 6.03159 5.07699 6.67407 4.75365 7.42576C4.43032 8.17745 4.34572 9.00459 4.51055 9.80259C4.67539 10.6006 5.08226 11.3336 5.6797 11.9089C6.27715 12.4842 7.03834 12.876 7.86703 13.0347C8.69571 13.1935 9.55466 13.112 10.3353 12.8007C11.1159 12.4893 11.7831 11.962 12.2525 11.2855C12.7219 10.609 12.9724 9.81366 12.9724 9.00003C12.9724 7.90899 12.5223 6.86264 11.7212 6.09116C10.92 5.31968 9.83345 4.88627 8.70045 4.88627Z" fill="#E6ECFD"/>
<path fill-rule="evenodd" clip-rule="evenodd" d="M50.3323 9.0493C50.3323 4.5058 46.5066 0.821777 41.7884 0.821777C37.0701 0.821777 33.2444 4.5058 33.2444 9.0493C33.2444 13.1557 36.3683 16.5595 40.4534 17.1773V11.4283H38.2834V9.0493H40.4534V7.23667C40.4534 5.17502 41.7292 4.03529 43.6806 4.03529C44.6155 4.03529 45.5935 4.19616 45.5935 4.19616V6.22109H44.5156C43.4548 6.22109 43.123 6.85505 43.123 7.50664V9.0493H45.4924L45.114 11.4283H43.1233V17.178C47.2084 16.5606 50.3323 13.1568 50.3323 9.0493Z" fill="#E6ECFD"/>
<path d="M84.6408 3.41226C83.9541 3.71067 83.2274 3.90727 82.4839 3.99584C83.2653 3.53827 83.8529 2.81134 84.1366 1.95139C83.3978 2.38339 82.5909 2.6865 81.7504 2.84774C81.3965 2.47682 80.9708 2.18174 80.4993 1.98044C80.0278 1.77913 79.5202 1.67582 79.0075 1.67676C76.9318 1.67676 75.252 3.33216 75.252 5.37279C75.2505 5.65664 75.2831 5.93964 75.3489 6.21574C73.8604 6.14597 72.4029 5.76626 71.0697 5.10093C69.7364 4.4356 68.5566 3.49928 67.6059 2.35189C67.2724 2.91416 67.096 3.55569 67.0952 4.20944C67.0952 5.49103 67.7638 6.62387 68.7735 7.28756C68.1753 7.27336 67.5894 7.11504 67.0654 6.82603V6.8718C67.0654 8.66451 68.3623 10.1559 70.0787 10.4954C69.7559 10.5814 69.4233 10.625 69.0893 10.625C68.8523 10.6255 68.6158 10.6025 68.3833 10.5564C68.8604 12.0249 70.2492 13.0929 71.8943 13.1234C70.5575 14.1536 68.9164 14.7104 67.2287 14.7063C66.9291 14.7059 66.6298 14.688 66.3323 14.6529C68.0492 15.7492 70.0449 16.3291 72.082 16.3236C78.9995 16.3236 82.7787 10.6899 82.7787 5.8038C82.7787 5.6436 82.7745 5.48341 82.7669 5.32702C83.5004 4.80525 84.135 4.15684 84.6408 3.41226Z" fill="#E6ECFD"/>
<path d="M109.322 0.320312C104.528 0.320312 100.641 4.20588 100.641 8.99796C100.641 12.5504 102.78 15.603 105.838 16.9473C105.815 16.343 105.834 15.6147 105.989 14.9561C106.156 14.251 107.105 10.226 107.105 10.226C107.105 10.226 106.826 9.67203 106.826 8.85462C106.826 7.56847 107.571 6.60773 108.501 6.60773C109.291 6.60773 109.671 7.20045 109.671 7.90938C109.671 8.70354 109.163 9.88897 108.904 10.9892C108.687 11.9112 109.365 12.6588 110.276 12.6588C111.919 12.6588 113.027 10.5475 113.027 8.04497C113.027 6.14286 111.745 4.72112 109.415 4.72112C106.784 4.72112 105.14 6.68521 105.14 8.87787C105.14 9.63329 105.365 10.1679 105.714 10.5785C105.873 10.7684 105.896 10.8458 105.838 11.0628C105.795 11.2216 105.702 11.6051 105.66 11.7601C105.602 11.9809 105.423 12.0584 105.226 11.977C104.013 11.4812 103.447 10.1563 103.447 8.66093C103.447 6.19709 105.528 3.24127 109.652 3.24127C112.965 3.24127 115.147 5.63925 115.147 8.21155C115.147 11.6168 113.252 14.1581 110.462 14.1581C109.524 14.1581 108.644 13.6506 108.342 13.0772C108.342 13.0772 107.838 15.0762 107.729 15.4636C107.547 16.1338 107.187 16.8001 106.857 17.3231C107.657 17.5587 108.485 17.6787 109.318 17.6795C114.113 17.6795 118 13.7939 118 9.00183C118 4.20976 114.117 0.320312 109.322 0.320312Z" fill="#E6ECFD"/>
</svg>
